# xmcd CD database file
#
# Track frame offsets:
#	150
#	2918
#	29506
#	57618
#	76274
#	91746
#	115202
#	144314
#	159874
#	181050
#	200446
#	212602
#	236846
#	247366
#
# Disc length: 3522 seconds
#
# Revision: 0
# Processed by: cddbd v1.5.2PL0 Copyright (c) Steve Scherf et al.
# Submitted via: CDex 1.51
#
DISCID=ba0dc00e
DTITLE=Jamaaladeen Tacuma - Uwe Kropinski - ZWEI
DYEAR=2009
DGENRE=Jazz
TTITLE0=Relax
TTITLE1=Lydian Summer
TTITLE2=From F to F and back
TTITLE3=Chromatic Driving
TTITLE4=Dorian Spring
TTITLE5=Plastic Bag
TTITLE6=Al Hamdulillah
TTITLE7=Na und
TTITLE8=Some Way Home
TTITLE9=Tana
TTITLE10=Shake Me
TTITLE11=Showstopper
TTITLE12=Quiet Time
TTITLE13=Berliner Luft
EXTD=YEAR: 2009
EXTT0=
EXTT1=
EXTT2=
EXTT3=
EXTT4=
EXTT5=
EXTT6=
EXTT7=
EXTT8=
EXTT9=
EXTT10=
EXTT11=
EXTT12=
EXTT13=
PLAYORDER=
